<?xml version="1.0" encoding="UTF-8" standalone="no"?>
<svg
   xmlns:dc="http://purl.org/dc/elements/1.1/"
   xmlns:cc="http://creativecommons.org/ns#"
   xmlns:rdf="http://www.w3.org/1999/02/22-rdf-syntax-ns#"
   xmlns:svg="http://www.w3.org/2000/svg"
   xmlns="http://www.w3.org/2000/svg"
   xmlns:sodipodi="http://sodipodi.sourceforge.net/DTD/sodipodi-0.dtd"
   xmlns:inkscape="http://www.inkscape.org/namespaces/inkscape"
   version="1.2"
   viewBox="0 0 5220 1280.1659"
   preserveAspectRatio="xMidYMid"
   clip-path="url(#presentation_clip_path)"
   xml:space="preserve"
   id="svg2"
   inkscape:version="0.48.4 r9939"
   width="100%"
   height="100%"
   sodipodi:docname="bsc logo.svg"
   style="fill-rule:evenodd;stroke-width:28.22200012;stroke-linejoin:round"><metadata
     id="metadata401"><rdf:RDF><cc:Work
         rdf:about=""><dc:format>image/svg+xml</dc:format><dc:type
           rdf:resource="http://purl.org/dc/dcmitype/StillImage" /></cc:Work></rdf:RDF></metadata><sodipodi:namedview
     pagecolor="#ffffff"
     bordercolor="#666666"
     borderopacity="1"
     objecttolerance="10"
     gridtolerance="10"
     guidetolerance="10"
     inkscape:pageopacity="0"
     inkscape:pageshadow="2"
     inkscape:window-width="1680"
     inkscape:window-height="1003"
     id="namedview399"
     showgrid="false"
     fit-margin-top="0"
     fit-margin-left="0"
     fit-margin-right="0"
     fit-margin-bottom="0"
     inkscape:zoom="0.19821522"
     inkscape:cx="3108.0875"
     inkscape:cy="49.027284"
     inkscape:window-x="-2"
     inkscape:window-y="-3"
     inkscape:window-maximized="1"
     inkscape:current-layer="svg2" /><defs
     id="defs4"><clipPath
       id="presentation_clip_path"
       clipPathUnits="userSpaceOnUse"><rect
         x="0"
         y="0"
         width="25400"
         height="19050"
         id="rect7" /></clipPath></defs><defs
     id="defs9" /><defs
     id="defs146" /><defs
     id="defs201" /><defs
     id="defs212" /><defs
     id="defs227" /><defs
     id="defs240" /><g
     id="g269"
     transform="translate(-633,-17524)"><path
       d="m 2313,17729 0,0 c 91,0 91,0 91,0 41,0 55,13 55,38 0,23 -11,39 -34,43 0,0 0,0 0,0 0,0 0,0 0,0 18,5 27,21 27,37 0,43 -34,61 -72,61 -103,0 -103,0 -103,0 l 36,-179 z m 26,136 0,0 c 36,0 36,0 36,0 9,0 23,-5 23,-18 0,-14 -10,-16 -21,-16 -32,0 -32,0 -32,0 l -6,34 z m 13,-68 0,0 c 32,0 32,0 32,0 9,0 20,-2 20,-14 0,-11 -9,-11 -18,-11 -27,0 -27,0 -27,0 l -7,25 z"
       id="path271"
       inkscape:connector-curvature="0"
       style="fill:#004990;stroke:none" /><path
       d="m 2479,17817 0,0 c 7,-36 34,-43 66,-43 25,0 64,2 64,34 0,21 -16,80 -16,86 2,12 0,7 2,14 -48,0 -48,0 -48,0 -2,-4 -2,-9 -2,-14 0,0 0,0 0,0 -9,12 -27,16 -41,16 -22,0 -43,-9 -43,-34 0,-34 28,-43 64,-47 13,0 36,2 36,-14 0,-9 -7,-11 -16,-11 -9,0 -16,2 -18,13 l -48,0 z m 48,64 0,0 c 18,0 25,-11 27,-32 -9,5 -18,5 -27,7 -7,0 -16,4 -16,14 0,9 9,11 16,11 z"
       id="path273"
       inkscape:connector-curvature="0"
       style="fill:#004990;stroke:none" /><path
       d="m 2645,17776 0,0 c 48,0 48,0 48,0 -5,21 -5,21 -5,21 3,0 3,0 3,0 6,-14 25,-23 36,-23 9,0 14,0 18,2 -9,43 -9,43 -9,43 -7,-2 -14,-2 -20,-2 -21,0 -30,9 -37,37 -11,54 -11,54 -11,54 -50,0 -50,0 -50,0 l 27,-132 z"
       id="path275"
       inkscape:connector-curvature="0"
       style="fill:#004990;stroke:none" /><path
       d="m 2829,17826 0,0 c 0,-7 0,-9 -2,-13 -2,-3 -7,-3 -14,-3 -20,0 -27,28 -27,41 0,12 2,23 18,23 14,0 18,-11 21,-18 47,0 47,0 47,0 -9,36 -32,54 -70,54 -55,0 -66,-34 -66,-59 0,-45 29,-77 80,-77 36,0 61,16 61,52 l -48,0 z"
       id="path277"
       inkscape:connector-curvature="0"
       style="fill:#004990;stroke:none" /><path
       d="m 3020,17870 0,0 c -5,9 -14,40 -70,40 -46,0 -64,-24 -64,-56 0,-59 45,-80 77,-80 30,0 64,16 64,57 0,7 0,14 -2,23 -94,0 -94,0 -94,0 0,13 5,25 21,25 11,0 18,-5 20,-9 48,0 48,0 48,0 z m -41,-41 0,0 c 0,-3 2,-5 2,-5 0,-11 -6,-18 -20,-18 -14,0 -21,7 -25,23 43,0 43,0 43,0 z"
       id="path279"
       inkscape:connector-curvature="0"
       style="fill:#004990;stroke:none" /><path
       d="m 3074,17729 50,0 -38,179 -48,0 36,-179 z"
       id="path281"
       inkscape:connector-curvature="0"
       style="fill:#004990;stroke:none" /><path
       d="m 3202,17774 0,0 c 38,0 63,18 63,57 0,34 -18,79 -79,79 -34,0 -64,-18 -64,-61 0,-41 27,-75 80,-75 z m -14,100 0,0 c 21,0 27,-29 27,-41 0,-14 -4,-23 -16,-23 -20,0 -27,30 -27,44 0,9 2,20 16,20 z"
       id="path283"
       inkscape:connector-curvature="0"
       style="fill:#004990;stroke:none" /><path
       d="m 3299,17776 0,0 c 48,0 48,0 48,0 -2,19 -2,19 -2,19 0,0 0,0 0,0 9,-14 25,-21 41,-21 22,0 41,9 41,34 0,7 0,16 -3,25 -16,75 -16,75 -16,75 -50,0 -50,0 -50,0 12,-61 12,-61 12,-61 2,-7 4,-16 4,-21 0,-9 -4,-13 -13,-13 -16,0 -21,11 -25,25 -14,70 -14,70 -14,70 -50,0 -50,0 -50,0 l 27,-132 z"
       id="path285"
       inkscape:connector-curvature="0"
       style="fill:#004990;stroke:none" /><path
       d="m 3454,17817 0,0 c 7,-36 34,-43 66,-43 25,0 63,2 63,34 0,21 -16,80 -16,86 0,12 0,7 3,14 -48,0 -48,0 -48,0 -2,-4 -2,-9 -2,-14 0,0 0,0 0,0 -9,12 -27,16 -41,16 -23,0 -43,-9 -43,-34 0,-34 27,-43 63,-47 14,0 37,2 37,-14 0,-9 -9,-11 -16,-11 -9,0 -16,2 -21,13 l -45,0 z m 47,64 0,0 c 19,0 26,-11 28,-32 -9,5 -18,5 -28,7 -6,0 -15,4 -15,14 0,9 9,11 15,11 z"
       id="path287"
       inkscape:connector-curvature="0"
       style="fill:#004990;stroke:none" /><path
       d="m 2393,18069 0,0 c 0,-6 -2,-11 -7,-13 -4,-5 -9,-5 -16,-5 -9,0 -20,3 -20,14 0,14 25,16 43,20 32,12 41,30 41,50 0,44 -41,64 -80,64 -41,0 -79,-18 -77,-64 55,0 55,0 55,0 0,9 2,16 7,21 4,2 11,2 20,2 11,0 23,-4 23,-16 0,-13 -18,-16 -43,-23 -21,-6 -41,-20 -41,-50 0,-38 38,-59 75,-59 36,0 72,16 70,59 -50,0 -50,0 -50,0 z"
       id="path289"
       inkscape:connector-curvature="0"
       style="fill:#004990;stroke:none" /><path
       d="m 2577,18194 0,0 c -50,0 -50,0 -50,0 4,-15 4,-15 4,-15 0,0 0,0 0,0 -11,11 -24,18 -40,18 -23,0 -43,-9 -43,-34 0,-12 4,-28 20,-98 50,0 50,0 50,0 -16,68 -16,68 -16,68 -2,7 -2,14 -2,14 0,7 9,11 16,11 22,0 22,-25 27,-41 11,-52 11,-52 11,-52 50,0 50,0 50,0 l -27,129 z"
       id="path291"
       inkscape:connector-curvature="0"
       style="fill:#004990;stroke:none" /><path
       d="m 2632,18065 0,0 c 47,0 47,0 47,0 -2,14 -2,14 -2,14 0,0 0,0 0,0 9,-12 20,-19 34,-19 39,0 48,32 48,55 0,39 -18,82 -64,82 -13,0 -27,0 -39,-18 -11,59 -11,59 -11,59 -50,0 -50,0 -50,0 l 37,-173 z m 79,54 0,0 c 0,-11 -4,-22 -18,-22 -23,0 -27,32 -27,43 0,4 2,23 18,23 20,0 27,-25 27,-44 z"
       id="path293"
       inkscape:connector-curvature="0"
       style="fill:#004990;stroke:none" /><path
       d="m 2906,18156 0,0 c -2,9 -11,41 -68,41 -45,0 -63,-25 -63,-57 0,-59 45,-80 77,-80 29,0 64,16 64,57 0,9 0,16 -3,23 -93,0 -93,0 -93,0 0,14 5,25 20,25 12,0 16,-5 21,-9 45,0 45,0 45,0 z m -38,-41 0,0 c 0,-2 2,-2 2,-5 0,-9 -7,-18 -20,-18 -14,0 -21,9 -25,23 l 43,0 z"
       id="path295"
       inkscape:connector-curvature="0"
       style="fill:#004990;stroke:none" /><path
       d="m 2952,18065 0,0 c 47,0 47,0 47,0 -4,20 -4,20 -4,20 0,0 0,0 0,0 9,-13 25,-25 39,-25 9,0 13,3 18,3 -9,45 -9,45 -9,45 -7,-2 -14,-4 -21,-4 -20,0 -31,9 -36,36 -11,54 -11,54 -11,54 -50,0 -50,0 -50,0 l 27,-129 z"
       id="path297"
       inkscape:connector-curvature="0"
       style="fill:#004990;stroke:none" /><path
       d="m 3136,18115 0,0 c 0,-7 0,-11 -5,-14 -2,-2 -7,-4 -11,-4 -23,0 -27,29 -27,41 0,13 2,25 15,25 14,0 21,-14 23,-21 48,0 48,0 48,0 -9,39 -32,55 -71,55 -54,0 -65,-34 -65,-59 0,-43 29,-78 79,-78 34,0 62,19 62,55 l -48,0 z"
       id="path299"
       inkscape:connector-curvature="0"
       style="fill:#004990;stroke:none" /><path
       d="m 3272,18060 0,0 c 36,0 62,19 62,57 0,34 -19,80 -78,80 -36,0 -66,-16 -66,-59 0,-43 28,-78 82,-78 z m -13,103 0,0 c 20,0 27,-30 27,-41 0,-16 -5,-25 -19,-25 -20,0 -27,29 -27,43 0,11 5,23 19,23 z"
       id="path301"
       inkscape:connector-curvature="0"
       style="fill:#004990;stroke:none" /><path
       d="m 3370,18065 0,0 c 47,0 47,0 47,0 -4,16 -4,16 -4,16 2,0 2,0 2,0 9,-12 23,-21 41,-21 16,0 32,7 34,23 11,-14 25,-23 43,-23 25,0 41,14 41,39 0,7 -2,16 -2,20 -16,75 -16,75 -16,75 -50,0 -50,0 -50,0 14,-61 14,-61 14,-61 0,-2 2,-16 2,-20 0,-7 -5,-12 -14,-12 -9,0 -15,5 -18,14 -16,79 -16,79 -16,79 -50,0 -50,0 -50,0 14,-70 14,-70 14,-70 2,-2 2,-7 2,-11 0,-9 -4,-12 -11,-12 -14,0 -18,7 -21,18 -16,75 -16,75 -16,75 -50,0 -50,0 -50,0 l 28,-129 z"
       id="path303"
       inkscape:connector-curvature="0"
       style="fill:#004990;stroke:none" /><path
       d="m 3610,18065 0,0 c 48,0 48,0 48,0 -2,14 -2,14 -2,14 0,0 0,0 0,0 9,-12 20,-19 34,-19 36,0 48,32 48,55 0,39 -18,82 -64,82 -14,0 -27,0 -38,-18 -12,59 -12,59 -12,59 -50,0 -50,0 -50,0 l 36,-173 z m 78,54 0,0 c 0,-11 -3,-22 -18,-22 -21,0 -25,32 -25,43 0,4 2,23 18,23 20,0 25,-25 25,-44 z"
       id="path305"
       inkscape:connector-curvature="0"
       style="fill:#004990;stroke:none" /><path
       d="m 3879,18194 0,0 c -48,0 -48,0 -48,0 5,-15 5,-15 5,-15 0,0 0,0 0,0 -12,11 -26,18 -44,18 -22,0 -41,-9 -41,-34 0,-12 5,-28 21,-98 50,0 50,0 50,0 -16,68 -16,68 -16,68 -2,7 -2,14 -2,14 0,7 6,11 16,11 20,0 22,-25 27,-41 9,-52 9,-52 9,-52 50,0 50,0 50,0 l -27,129 z"
       id="path307"
       inkscape:connector-curvature="0"
       style="fill:#004990;stroke:none" /><path
       d="m 3992,18065 0,0 c 27,0 27,0 27,0 -6,30 -6,30 -6,30 -28,0 -28,0 -28,0 -9,43 -9,43 -9,43 0,4 -2,9 -2,11 0,5 2,9 11,9 7,0 12,0 16,-2 -9,36 -9,36 -9,36 -7,2 -16,2 -25,5 -11,0 -22,0 -32,-7 -9,-4 -13,-14 -13,-23 0,-9 2,-13 2,-18 11,-54 11,-54 11,-54 -20,0 -20,0 -20,0 7,-30 7,-30 7,-30 20,0 20,0 20,0 9,-39 9,-39 9,-39 50,0 50,0 50,0 l -9,39 z"
       id="path309"
       inkscape:connector-curvature="0"
       style="fill:#004990;stroke:none" /><path
       d="m 4038,18065 50,0 -28,129 -50,0 28,-129 z m 52,-14 -50,0 9,-36 48,0 -7,36 z"
       id="path311"
       inkscape:connector-curvature="0"
       style="fill:#004990;stroke:none" /><path
       d="m 4115,18065 0,0 c 48,0 48,0 48,0 -3,16 -3,16 -3,16 0,0 0,0 0,0 9,-12 25,-21 41,-21 23,0 41,12 41,37 0,4 0,16 -2,25 -16,72 -16,72 -16,72 -50,0 -50,0 -50,0 13,-59 13,-59 13,-59 0,-9 3,-16 3,-22 0,-7 -5,-12 -14,-12 -16,0 -20,12 -23,25 -15,68 -15,68 -15,68 -50,0 -50,0 -50,0 l 27,-129 z"
       id="path313"
       inkscape:connector-curvature="0"
       style="fill:#004990;stroke:none" /><path
       d="m 4387,18172 0,0 c -9,36 -15,68 -77,68 -16,0 -63,-2 -61,-43 50,0 50,0 50,0 0,4 0,9 4,11 3,2 5,2 12,2 13,0 18,-11 20,-22 2,-14 2,-14 2,-14 0,0 0,0 0,0 -6,9 -18,14 -31,14 -30,0 -50,-21 -50,-53 0,-36 22,-75 63,-75 16,0 30,5 39,21 0,0 0,0 0,0 2,-16 2,-16 2,-16 48,0 48,0 48,0 l -21,107 z m -81,-39 0,0 c 0,14 4,23 16,23 24,0 27,-30 27,-39 0,-7 0,-20 -18,-20 -19,0 -25,22 -25,36 z"
       id="path315"
       inkscape:connector-curvature="0"
       style="fill:#004990;stroke:none" /><path
       d="m 2457,18415 0,0 c -3,18 -16,71 -91,71 -53,0 -77,-32 -77,-80 0,-59 36,-107 97,-107 39,0 75,18 75,70 -52,0 -52,0 -52,0 2,-15 -7,-24 -23,-24 -32,0 -43,34 -43,59 0,15 5,38 30,38 15,0 27,-11 29,-27 55,0 55,0 55,0 z"
       id="path317"
       inkscape:connector-curvature="0"
       style="fill:#004990;stroke:none" /><path
       d="m 2607,18444 0,0 c -5,10 -14,42 -71,42 -45,0 -63,-26 -63,-57 0,-62 45,-80 77,-80 29,0 63,16 63,57 0,7 0,13 -2,23 -93,0 -93,0 -93,0 0,13 5,25 20,25 12,0 19,-5 21,-10 l 48,0 z m -39,-43 0,0 c 0,0 0,-2 0,-2 0,-11 -7,-18 -18,-18 -14,0 -23,7 -27,20 l 45,0 z"
       id="path319"
       inkscape:connector-curvature="0"
       style="fill:#004990;stroke:none" /><path
       d="m 2650,18351 0,0 c 47,0 47,0 47,0 -2,18 -2,18 -2,18 0,0 0,0 0,0 9,-13 25,-20 41,-20 23,0 41,9 41,34 0,7 0,16 -2,25 -16,75 -16,75 -16,75 -50,0 -50,0 -50,0 11,-61 11,-61 11,-61 2,-7 5,-16 5,-21 0,-9 -5,-13 -14,-13 -16,0 -20,11 -25,25 -14,70 -14,70 -14,70 -50,0 -50,0 -50,0 l 28,-132 z"
       id="path321"
       inkscape:connector-curvature="0"
       style="fill:#004990;stroke:none" /><path
       d="m 2870,18351 0,0 c 27,0 27,0 27,0 -9,32 -9,32 -9,32 -25,0 -25,0 -25,0 -9,41 -9,41 -9,41 0,5 -2,9 -2,14 0,4 2,6 9,6 9,0 14,0 18,0 -9,37 -9,37 -9,37 -9,0 -18,2 -27,2 -9,0 -21,0 -30,-4 -9,-5 -13,-16 -13,-25 0,-7 0,-12 2,-19 11,-52 11,-52 11,-52 -22,0 -22,0 -22,0 6,-32 6,-32 6,-32 23,0 23,0 23,0 9,-38 9,-38 9,-38 50,0 50,0 50,0 l -9,38 z"
       id="path323"
       inkscape:connector-curvature="0"
       style="fill:#004990;stroke:none" /><path
       d="m 3029,18444 0,0 c -4,10 -14,42 -70,42 -46,0 -64,-26 -64,-57 0,-62 45,-80 77,-80 30,0 64,16 64,57 0,7 0,13 -2,23 -94,0 -94,0 -94,0 0,13 5,25 21,25 11,0 16,-5 20,-10 l 48,0 z m -41,-43 0,0 c 0,0 3,-2 3,-2 0,-11 -7,-18 -21,-18 -14,0 -20,7 -25,20 l 43,0 z"
       id="path325"
       inkscape:connector-curvature="0"
       style="fill:#004990;stroke:none" /><path
       d="m 3072,18351 0,0 c 48,0 48,0 48,0 -5,21 -5,21 -5,21 0,0 0,0 0,0 9,-14 25,-23 39,-23 9,0 14,0 18,2 -9,44 -9,44 -9,44 -7,-3 -14,-3 -20,-3 -21,0 -32,9 -37,37 -11,54 -11,54 -11,54 -50,0 -50,0 -50,0 l 27,-132 z"
       id="path327"
       inkscape:connector-curvature="0"
       style="fill:#004990;stroke:none" /><path
       d="m 2416,18672 0,0 c -7,32 -30,52 -66,52 -39,0 -61,-23 -61,-64 0,-47 29,-91 79,-91 32,0 57,19 57,53 -21,0 -21,0 -21,0 0,-23 -13,-34 -36,-34 -41,0 -61,36 -61,72 0,28 13,48 43,48 25,0 41,-13 45,-36 21,0 21,0 21,0 z"
       id="path329"
       inkscape:connector-curvature="0"
       style="fill:#004990;stroke:none" /><path
       d="m 2450,18674 0,0 c -2,2 -2,5 -2,9 0,16 13,25 27,25 16,0 27,-7 32,-20 18,0 18,0 18,0 -7,22 -25,36 -50,36 -34,0 -43,-25 -43,-43 0,-41 25,-68 54,-68 30,0 45,16 45,47 0,5 -2,9 -2,14 -79,0 -79,0 -79,0 z m 63,-16 0,0 c 0,-16 -6,-29 -24,-29 -21,0 -32,13 -37,29 l 61,0 z"
       id="path331"
       inkscape:connector-curvature="0"
       style="fill:#004990;stroke:none" /><path
       d="m 2561,18615 0,0 c 16,0 16,0 16,0 -2,16 -2,16 -2,16 0,0 0,0 0,0 9,-12 23,-18 38,-18 21,0 30,9 30,27 0,5 -2,11 -5,20 -11,62 -11,62 -11,62 -18,0 -18,0 -18,0 13,-64 13,-64 13,-64 0,-2 3,-11 3,-16 0,-9 -9,-13 -18,-13 -9,0 -21,4 -28,11 -4,5 -9,13 -11,23 -11,59 -11,59 -11,59 -19,0 -19,0 -19,0 l 23,-107 z"
       id="path333"
       inkscape:connector-curvature="0"
       style="fill:#004990;stroke:none" /><path
       d="m 2700,18615 0,0 c 20,0 20,0 20,0 -2,16 -2,16 -2,16 -21,0 -21,0 -21,0 -13,61 -13,61 -13,61 0,3 -2,5 -2,7 0,7 6,9 11,9 4,0 7,-2 9,-2 -2,16 -2,16 -2,16 -5,0 -7,0 -12,0 -13,0 -25,-3 -25,-16 0,-5 0,-7 3,-9 13,-66 13,-66 13,-66 -18,0 -18,0 -18,0 2,-16 2,-16 2,-16 19,0 19,0 19,0 6,-32 6,-32 6,-32 19,0 19,0 19,0 l -7,32 z"
       id="path335"
       inkscape:connector-curvature="0"
       style="fill:#004990;stroke:none" /><path
       d="m 2741,18615 0,0 c 16,0 16,0 16,0 -5,23 -5,23 -5,23 0,0 0,0 0,0 9,-16 20,-25 39,-25 2,0 4,0 6,0 -4,18 -4,18 -4,18 -2,0 -5,0 -5,0 -4,0 -7,0 -11,0 -9,2 -16,9 -23,18 -4,7 -7,16 -9,25 -9,48 -9,48 -9,48 -18,0 -18,0 -18,0 l 23,-107 z"
       id="path337"
       inkscape:connector-curvature="0"
       style="fill:#004990;stroke:none" /><path
       d="m 2852,18613 0,0 c 27,0 43,16 43,43 0,36 -23,68 -59,68 -27,0 -45,-18 -45,-45 0,-34 22,-66 61,-66 z m -14,95 0,0 c 25,0 39,-29 39,-50 0,-18 -9,-29 -27,-29 -28,0 -41,27 -41,50 0,18 9,29 29,29 z"
       id="path339"
       inkscape:connector-curvature="0"
       style="fill:#004990;stroke:none" /><path
       d="m 2995,18574 23,0 52,123 0,0 25,-123 18,0 -32,148 -20,0 -52,-123 0,0 -25,123 -19,0 30,-148 z"
       id="path341"
       inkscape:connector-curvature="0"
       style="fill:#004990;stroke:none" /><path
       d="m 3122,18647 0,0 c 5,-23 25,-34 48,-34 20,0 39,4 39,27 0,5 -3,13 -5,18 -7,30 -7,30 -7,30 0,4 -2,11 -2,16 0,4 2,6 7,6 0,0 2,-2 4,-2 -2,14 -2,14 -2,14 -2,0 -9,2 -11,2 -9,0 -14,-7 -14,-16 0,0 0,0 0,0 -7,9 -18,16 -36,16 -19,0 -32,-9 -32,-29 0,-32 29,-35 52,-37 21,-2 27,-2 27,-16 0,-11 -11,-13 -20,-13 -14,0 -27,4 -30,18 -18,0 -18,0 -18,0 z m 25,61 0,0 c 14,0 23,-4 30,-13 7,-10 7,-19 9,-28 0,0 0,0 0,0 -7,5 -21,5 -34,7 -14,2 -25,7 -25,21 0,9 11,13 20,13 z"
       id="path343"
       inkscape:connector-curvature="0"
       style="fill:#004990;stroke:none" /><path
       d="m 3306,18649 0,0 c 0,-14 -9,-20 -23,-20 -27,0 -43,24 -43,50 0,16 7,29 27,29 16,0 28,-9 32,-23 16,0 16,0 16,0 -4,25 -22,39 -48,39 -29,0 -42,-18 -42,-45 0,-34 20,-66 58,-66 23,0 39,11 39,36 l -16,0 z"
       id="path345"
       inkscape:connector-curvature="0"
       style="fill:#004990;stroke:none" /><path
       d="m 3352,18615 18,0 -23,107 -18,0 23,-107 z m 20,-20 -16,0 5,-21 15,0 -4,21 z"
       id="path347"
       inkscape:connector-curvature="0"
       style="fill:#004990;stroke:none" /><path
       d="m 3438,18613 0,0 c 29,0 45,16 45,43 0,36 -22,68 -59,68 -27,0 -45,-18 -45,-45 0,-34 23,-66 59,-66 z m -11,95 0,0 c 25,0 38,-29 38,-50 0,-18 -9,-29 -27,-29 -27,0 -41,27 -41,50 0,18 9,29 30,29 z"
       id="path349"
       inkscape:connector-curvature="0"
       style="fill:#004990;stroke:none" /><path
       d="m 3515,18615 0,0 c 18,0 18,0 18,0 -4,16 -4,16 -4,16 0,0 0,0 0,0 9,-12 25,-18 38,-18 21,0 30,9 30,27 0,5 0,11 -2,20 -14,62 -14,62 -14,62 -18,0 -18,0 -18,0 13,-64 13,-64 13,-64 3,-2 3,-11 3,-16 0,-9 -7,-13 -18,-13 -9,0 -19,4 -25,11 -7,5 -9,13 -12,23 -13,59 -13,59 -13,59 -18,0 -18,0 -18,0 l 22,-107 z"
       id="path351"
       inkscape:connector-curvature="0"
       style="fill:#004990;stroke:none" /><path
       d="m 3620,18647 0,0 c 4,-23 22,-34 45,-34 23,0 41,4 41,27 0,5 -2,13 -5,18 -6,30 -6,30 -6,30 0,4 -3,11 -3,16 0,4 3,6 5,6 2,0 4,-2 7,-2 -5,14 -5,14 -5,14 -2,0 -7,2 -9,2 -11,0 -16,-7 -14,-16 -2,0 -2,0 -2,0 -7,9 -16,16 -34,16 -18,0 -34,-9 -34,-29 0,-32 32,-35 54,-37 19,-2 28,-2 28,-16 0,-11 -12,-13 -23,-13 -11,0 -25,4 -27,18 -18,0 -18,0 -18,0 z m 25,61 0,0 c 13,0 22,-4 29,-13 5,-10 7,-19 9,-28 0,0 0,0 0,0 -9,5 -23,5 -34,7 -13,2 -25,7 -25,21 0,9 9,13 21,13 z"
       id="path353"
       inkscape:connector-curvature="0"
       style="fill:#004990;stroke:none" /><path
       d="m 3747,18574 16,0 -30,148 -18,0 32,-148 z"
       id="path355"
       inkscape:connector-curvature="0"
       style="fill:#004990;stroke:none" /><path
       d="m 3913,18722 0,0 c -16,0 -16,0 -16,0 2,-16 2,-16 2,-16 0,0 0,0 0,0 -9,13 -20,18 -34,18 -27,0 -43,-18 -43,-43 0,-34 22,-68 59,-68 13,0 29,4 34,18 0,0 0,0 0,0 11,-57 11,-57 11,-57 19,0 19,0 19,0 l -32,148 z m -46,-14 0,0 c 27,0 41,-29 41,-52 0,-16 -9,-27 -25,-27 -29,0 -43,27 -43,52 0,16 9,27 27,27 z"
       id="path357"
       inkscape:connector-curvature="0"
       style="fill:#004990;stroke:none" /><path
       d="m 3963,18674 0,0 c -3,2 -3,5 -3,9 0,16 14,25 28,25 15,0 27,-7 31,-20 19,0 19,0 19,0 -7,22 -25,36 -50,36 -35,0 -43,-25 -43,-43 0,-41 24,-68 54,-68 32,0 45,16 45,47 0,5 -2,9 -2,14 -79,0 -79,0 -79,0 z m 63,-16 0,0 c 0,-16 -7,-29 -25,-29 -20,0 -32,13 -36,29 l 61,0 z"
       id="path359"
       inkscape:connector-curvature="0"
       style="fill:#004990;stroke:none" /><path
       d="m 4217,18617 0,0 c 0,-22 -14,-29 -34,-29 -14,0 -34,7 -34,22 0,16 11,21 23,25 20,5 20,5 20,5 18,5 36,13 36,41 0,29 -31,43 -56,43 -37,0 -62,-16 -60,-50 21,0 21,0 21,0 -2,25 14,34 39,34 18,0 36,-9 36,-27 0,-16 -11,-21 -25,-25 -20,-5 -20,-5 -20,-5 -19,-6 -35,-16 -35,-38 0,-28 28,-44 55,-44 30,0 54,16 52,48 -18,0 -18,0 -18,0 z"
       id="path361"
       inkscape:connector-curvature="0"
       style="fill:#004990;stroke:none" /><path
       d="m 4328,18722 0,0 c -18,0 -18,0 -18,0 5,-16 5,-16 5,-16 0,0 0,0 0,0 -9,11 -25,18 -39,18 -20,0 -29,-9 -29,-27 0,-5 0,-14 2,-21 13,-61 13,-61 13,-61 19,0 19,0 19,0 -14,61 -14,61 -14,61 -2,5 -2,14 -2,19 0,9 7,13 18,13 18,0 34,-16 39,-34 11,-59 11,-59 11,-59 18,0 18,0 18,0 l -23,107 z"
       id="path363"
       inkscape:connector-curvature="0"
       style="fill:#004990;stroke:none" /><path
       d="m 4378,18615 0,0 c 19,0 19,0 19,0 -5,16 -5,16 -5,16 0,0 0,0 0,0 11,-16 20,-18 36,-18 27,0 41,18 41,43 0,32 -22,68 -59,68 -13,0 -29,-5 -34,-18 0,0 0,0 0,0 -11,57 -11,57 -11,57 -16,0 -16,0 -16,0 l 29,-148 z m 46,14 0,0 c -25,0 -41,29 -41,52 0,16 9,27 27,27 27,0 41,-29 41,-52 0,-18 -7,-27 -27,-27 z"
       id="path365"
       inkscape:connector-curvature="0"
       style="fill:#004990;stroke:none" /><path
       d="m 4501,18674 0,0 c 0,2 -2,5 -2,9 0,16 13,25 29,25 14,0 25,-7 30,-20 18,0 18,0 18,0 -7,22 -25,36 -48,36 -36,0 -45,-25 -45,-43 0,-41 25,-68 54,-68 32,0 46,16 46,47 0,5 -3,9 -3,14 -79,0 -79,0 -79,0 z m 64,-16 0,0 c 2,-16 -5,-29 -25,-29 -21,0 -32,13 -37,29 l 62,0 z"
       id="path367"
       inkscape:connector-curvature="0"
       style="fill:#004990;stroke:none" /><path
       d="m 4612,18615 0,0 c 16,0 16,0 16,0 -4,23 -4,23 -4,23 0,0 0,0 0,0 9,-16 20,-25 38,-25 3,0 5,0 7,0 -4,18 -4,18 -4,18 -3,0 -3,0 -5,0 -5,0 -7,0 -11,0 -9,2 -16,9 -23,18 -5,7 -7,16 -9,25 -9,48 -9,48 -9,48 -18,0 -18,0 -18,0 l 22,-107 z"
       id="path369"
       inkscape:connector-curvature="0"
       style="fill:#004990;stroke:none" /><path
       d="m 4746,18649 0,0 c 0,-14 -9,-20 -22,-20 -28,0 -43,24 -43,50 0,16 6,29 27,29 16,0 27,-9 31,-23 16,0 16,0 16,0 -4,25 -22,39 -47,39 -30,0 -43,-18 -43,-45 0,-34 20,-66 59,-66 22,0 38,11 38,36 l -16,0 z"
       id="path371"
       inkscape:connector-curvature="0"
       style="fill:#004990;stroke:none" /><path
       d="m 4833,18613 0,0 c 29,0 45,16 45,43 0,36 -23,68 -59,68 -27,0 -45,-18 -45,-45 0,-34 22,-66 59,-66 z m -12,95 0,0 c 25,0 39,-29 39,-50 0,-18 -9,-29 -27,-29 -28,0 -41,27 -41,50 0,18 9,29 29,29 z"
       id="path373"
       inkscape:connector-curvature="0"
       style="fill:#004990;stroke:none" /><path
       d="m 4910,18615 0,0 c 16,0 16,0 16,0 -3,16 -3,16 -3,16 0,0 0,0 0,0 10,-12 23,-18 37,-18 13,0 25,4 27,18 9,-12 23,-18 37,-18 15,0 29,6 29,22 0,7 -2,16 -2,23 -14,64 -14,64 -14,64 -18,0 -18,0 -18,0 16,-69 16,-69 16,-69 0,-2 0,-8 0,-11 0,-9 -7,-13 -16,-13 -9,0 -21,6 -27,13 -5,7 -7,16 -9,25 -12,55 -12,55 -12,55 -18,0 -18,0 -18,0 14,-62 14,-62 14,-62 2,-9 2,-15 2,-18 0,-9 -5,-13 -14,-13 -11,0 -20,4 -27,13 -7,7 -9,14 -11,23 -12,57 -12,57 -12,57 -18,0 -18,0 -18,0 l 23,-107 z"
       id="path375"
       inkscape:connector-curvature="0"
       style="fill:#004990;stroke:none" /><path
       d="m 5085,18615 0,0 c 18,0 18,0 18,0 -5,16 -5,16 -5,16 0,0 0,0 0,0 12,-16 21,-18 37,-18 27,0 41,18 41,43 0,32 -23,68 -59,68 -14,0 -30,-5 -35,-18 0,0 0,0 0,0 -11,57 -11,57 -11,57 -16,0 -16,0 -16,0 l 30,-148 z m 45,14 0,0 c -25,0 -41,29 -41,52 0,16 9,27 28,27 27,0 40,-29 40,-52 0,-18 -6,-27 -27,-27 z"
       id="path377"
       inkscape:connector-curvature="0"
       style="fill:#004990;stroke:none" /><path
       d="m 5271,18722 0,0 c -16,0 -16,0 -16,0 2,-16 2,-16 2,-16 0,0 0,0 0,0 -9,11 -22,18 -38,18 -18,0 -30,-9 -30,-27 0,-5 2,-14 5,-21 11,-61 11,-61 11,-61 18,0 18,0 18,0 -13,61 -13,61 -13,61 0,5 -3,14 -3,19 0,9 10,13 19,13 20,0 34,-16 38,-34 12,-59 12,-59 12,-59 18,0 18,0 18,0 l -23,107 z"
       id="path379"
       inkscape:connector-curvature="0"
       style="fill:#004990;stroke:none" /><path
       d="m 5346,18615 0,0 c 23,0 23,0 23,0 -5,16 -5,16 -5,16 -20,0 -20,0 -20,0 -14,61 -14,61 -14,61 0,3 0,5 0,7 0,7 5,9 11,9 3,0 7,-2 10,-2 -3,16 -3,16 -3,16 -4,0 -9,0 -13,0 -14,0 -23,-3 -23,-16 0,-5 0,-7 0,-9 14,-66 14,-66 14,-66 -19,0 -19,0 -19,0 5,-16 5,-16 5,-16 18,0 18,0 18,0 7,-32 7,-32 7,-32 16,0 16,0 16,0 l -7,32 z"
       id="path381"
       inkscape:connector-curvature="0"
       style="fill:#004990;stroke:none" /><path
       d="m 5378,18647 0,0 c 2,-23 23,-34 45,-34 21,0 39,4 39,27 0,5 -2,13 -2,18 -7,30 -7,30 -7,30 -3,4 -3,11 -3,16 0,4 3,6 5,6 2,0 5,-2 5,-2 -3,14 -3,14 -3,14 -2,0 -7,2 -11,2 -9,0 -14,-7 -14,-16 0,0 0,0 0,0 -7,9 -18,16 -36,16 -16,0 -32,-9 -32,-29 0,-32 30,-35 55,-37 18,-2 27,-2 27,-16 0,-11 -14,-13 -23,-13 -14,0 -27,4 -27,18 -18,0 -18,0 -18,0 z m 23,61 0,0 c 13,0 24,-4 29,-13 7,-10 7,-19 9,-28 0,0 0,0 0,0 -7,5 -20,5 -34,7 -11,2 -23,7 -23,21 0,9 9,13 19,13 z"
       id="path383"
       inkscape:connector-curvature="0"
       style="fill:#004990;stroke:none" /><path
       d="m 5560,18649 0,0 c 0,-14 -10,-20 -23,-20 -27,0 -41,24 -41,50 0,16 7,29 25,29 16,0 27,-9 32,-23 18,0 18,0 18,0 -7,25 -25,39 -50,39 -27,0 -43,-18 -43,-45 0,-34 20,-66 59,-66 25,0 38,11 41,36 l -18,0 z"
       id="path385"
       inkscape:connector-curvature="0"
       style="fill:#004990;stroke:none" /><path
       d="m 5605,18615 18,0 -23,107 -18,0 23,-107 z m 23,-20 -19,0 5,-21 18,0 -4,21 z"
       id="path387"
       inkscape:connector-curvature="0"
       style="fill:#004990;stroke:none" /><path
       d="m 5693,18613 0,0 c 28,0 44,16 44,43 0,36 -21,68 -59,68 -28,0 -43,-18 -43,-45 0,-34 20,-66 58,-66 z m -13,95 0,0 c 25,0 41,-29 41,-50 0,-18 -9,-29 -30,-29 -27,0 -41,27 -41,50 0,18 12,29 30,29 z m 29,-139 0,0 c 23,0 23,0 23,0 -27,30 -27,30 -27,30 -16,0 -16,0 -16,0 l 20,-30 z"
       id="path389"
       inkscape:connector-curvature="0"
       style="fill:#004990;stroke:none" /><path
       d="m 5771,18615 0,0 c 16,0 16,0 16,0 -3,16 -3,16 -3,16 0,0 0,0 0,0 10,-12 23,-18 37,-18 20,0 32,9 32,27 0,5 -3,11 -5,20 -14,62 -14,62 -14,62 -16,0 -16,0 -16,0 14,-64 14,-64 14,-64 0,-2 2,-11 2,-16 0,-9 -9,-13 -18,-13 -11,0 -20,4 -27,11 -7,5 -9,13 -11,23 -14,59 -14,59 -14,59 -16,0 -16,0 -16,0 l 23,-107 z"
       id="path391"
       inkscape:connector-curvature="0"
       style="fill:#004990;stroke:none" /><path
       d="m 1455,17610 0,0 c 50,0 157,23 195,34 -402,-20 -654,253 -654,566 0,223 132,471 452,544 -370,6 -588,-300 -588,-568 0,-339 291,-576 595,-576 z"
       id="path393"
       inkscape:connector-curvature="0"
       style="fill:#004990;stroke:none" /><path
       d="m 1239,17524 0,0 c 66,0 152,23 211,41 -25,-5 -66,-5 -81,-5 -371,0 -596,328 -596,630 0,259 146,534 491,614 -409,9 -631,-350 -631,-641 0,-341 270,-639 606,-639 z"
       id="path395"
       inkscape:connector-curvature="0"
       style="fill:#004990;stroke:none" /><path
       d="m 1371,18206 0,0 c -36,0 -36,0 -36,0 -10,41 -10,41 -10,41 44,0 44,0 44,0 11,0 27,-5 27,-23 0,-16 -12,-18 -25,-18 z m 11,-71 0,0 c -34,0 -34,0 -34,0 -4,32 -4,32 -4,32 36,0 36,0 36,0 9,0 23,-4 23,-18 0,-11 -9,-14 -21,-14 z m 207,-443 0,0 c -282,0 -507,228 -507,507 0,280 225,507 507,507 279,0 506,-227 506,-507 0,-279 -227,-507 -506,-507 z m -127,534 0,0 c 0,50 -41,71 -89,71 -120,0 -120,0 -120,0 43,-214 43,-214 43,-214 109,0 109,0 109,0 45,0 63,18 63,48 0,27 -13,45 -38,52 0,0 0,0 0,0 0,0 0,0 0,0 18,5 32,23 32,43 z m 163,-59 0,0 c 37,14 50,34 50,59 0,53 -50,75 -95,75 -50,0 -93,-22 -91,-75 64,0 64,0 64,0 0,12 2,18 9,23 4,5 11,7 22,7 14,0 30,-7 30,-21 0,-15 -23,-18 -52,-29 -25,-7 -50,-20 -50,-57 0,-48 45,-70 88,-70 46,0 87,18 84,70 -59,0 -59,0 -59,0 0,-9 -2,-14 -7,-18 -6,-5 -13,-5 -20,-5 -11,0 -25,3 -25,18 0,16 32,16 52,23 z m 189,82 0,0 c 20,0 32,-14 36,-32 66,0 66,0 66,0 0,0 0,0 0,0 -4,21 -20,84 -109,84 -61,0 -93,-38 -93,-95 0,-71 43,-127 116,-127 47,0 90,20 90,84 -61,0 -61,0 -61,0 0,-19 -9,-30 -29,-30 -37,0 -50,41 -50,71 0,18 4,45 34,45 z"
       id="path397"
       inkscape:connector-curvature="0"
       style="fill:#004990;stroke:none" /></g></svg>