<?xml version="1.0" encoding="UTF-8" standalone="no"?>
<!-- Created with Inkscape (http://www.inkscape.org/) -->

<svg
   xmlns:dc="http://purl.org/dc/elements/1.1/"
   xmlns:cc="http://creativecommons.org/ns#"
   xmlns:rdf="http://www.w3.org/1999/02/22-rdf-syntax-ns#"
   xmlns:svg="http://www.w3.org/2000/svg"
   xmlns="http://www.w3.org/2000/svg"
   xmlns:sodipodi="http://sodipodi.sourceforge.net/DTD/sodipodi-0.dtd"
   xmlns:inkscape="http://www.inkscape.org/namespaces/inkscape"
   id="svg4058"
   version="1.1"
   inkscape:version="0.48.4 r9939"
   width="1600"
   height="130"
   sodipodi:docname="header.svg">
  <metadata
     id="metadata4064">
    <rdf:RDF>
      <cc:Work
         rdf:about="">
        <dc:format>image/svg+xml</dc:format>
        <dc:type
           rdf:resource="http://purl.org/dc/dcmitype/StillImage" />
        <dc:title />
      </cc:Work>
    </rdf:RDF>
  </metadata>
  <defs
     id="defs4062" />
  <sodipodi:namedview
     pagecolor="#ffffff"
     bordercolor="#666666"
     borderopacity="1"
     objecttolerance="10"
     gridtolerance="10"
     guidetolerance="10"
     inkscape:pageopacity="0"
     inkscape:pageshadow="2"
     inkscape:window-width="1366"
     inkscape:window-height="748"
     id="namedview4060"
     showgrid="false"
     inkscape:zoom="0.5"
     inkscape:cx="684.82458"
     inkscape:cy="-23.073301"
     inkscape:window-x="1678"
     inkscape:window-y="505"
     inkscape:window-maximized="1"
     inkscape:current-layer="svg4058" />
  <rect
     style="fill:#0065b3;fill-opacity:1;stroke:none"
     id="rect4070"
     width="1600"
     height="130"
     x="0"
     y="0" />
  <rect
     style="fill:#003674;fill-opacity:1;stroke:none"
     id="rect4072"
     width="1600"
     height="6"
     x="0"
     y="124" />
  <rect
     style="fill:#004a8b;fill-opacity:1;stroke:none"
     id="rect4068"
     width="1600"
     height="84"
     x="0"
     y="0" />
  <path
     style="fill:#1a3584;fill-opacity:1;fill-rule:evenodd;stroke:none"
     d="M 440.25 84 L 176.3125 84 C 170.15863 96.4629 165.71981 109.87206 163.28125 124 L 453.375 124 C 450.91819 109.87087 446.43467 96.463856 440.25 84 z "
     id="path4306" />
  <path
     style="fill:#1a3584;fill-opacity:1;fill-rule:evenodd;stroke:none"
     d="M 143.53125 84 L 100.625 84 C 95.922684 96.585756 92.530041 109.89712 91.03125 124 L 132.46875 124 C 134.54932 110.15186 138.15249 96.684825 143.53125 84 z "
     id="path4330" />
  <path
     style="fill:#19266c;fill-opacity:1;fill-rule:evenodd;stroke:none"
     d="M 224.96875 0 L 169.625 0 C 138.73424 19.649829 113.89983 48.558523 100.65625 84 L 143.875 84 C 159.05619 48.201483 186.89517 18.189215 224.96875 0 z "
     id="path4482" />
  <path
     style="fill:#1a3584;fill-opacity:1;fill-rule:evenodd;stroke:none"
     d="M 73.96875 84 L 29.90625 84 C 26.335504 96.909529 24.125394 110.31263 23.3125 124 L 65.40625 124 C 66.816124 110.54135 69.734445 97.117121 73.96875 84 z "
     id="path4318" />
  <path
     style="fill:#1a3584;fill-opacity:1;fill-rule:evenodd;stroke:none"
     d="M 1384.0312 84 L 1342.7188 84 C 1347.1536 97.757472 1353.2776 111.21672 1360.9062 124 L 1399.7812 124 C 1392.855 111.1249 1387.5735 97.681796 1384.0312 84 z "
     id="path4649" />
  <path
     style="fill:#1a3584;fill-opacity:1;fill-rule:evenodd;stroke:none"
     d="M 1314.0938 84 L 1271.75 84 C 1275.9215 97.619308 1281.459 111.0631 1288.3125 124 L 1328.5 124 C 1322.3 111.09448 1317.4853 97.689059 1314.0938 84 z "
     id="path4637" />
  <path
     style="fill:#1a3584;fill-opacity:1;fill-rule:evenodd;stroke:none"
     d="M 1600 84 L 1419.7812 84 C 1424.2834 98.277367 1430.7112 111.68609 1438.6875 124 L 1600 124 L 1600 84 z "
     id="path4661" />
  <path
     style="fill:#1a3584;fill-opacity:1;fill-rule:evenodd;stroke:none"
     d="M 1399.7812 124 L 1360.9062 124 C 1362.1001 126.00054 1363.2308 128.03571 1364.5 130 L 1403.0312 130 C 1401.8702 128.03011 1400.8578 126.00113 1399.7812 124 z "
     id="path4651" />
  <path
     style="fill:#1a3584;fill-opacity:1;fill-rule:evenodd;stroke:none"
     d="M 1336.4062 0 C 1334.8042 9.7532199 1333.9375 19.809597 1333.9375 30.1875 C 1333.9375 47.948972 1336.9771 66.188355 1342.7188 84 L 1384.0312 84 C 1380.0733 68.71277 1378.1562 53.181615 1378.1562 38 C 1378.1562 25.058626 1379.5119 12.351547 1382.0938 0 L 1336.4062 0 z "
     id="path4573" />
  <path
     style="fill:#1a3584;fill-opacity:1;fill-rule:evenodd;stroke:none"
     d="M 1328.5 124 L 1288.3125 124 C 1289.3699 125.9959 1290.3485 128.03086 1291.4688 130 L 1331.375 130 C 1330.3464 128.02926 1329.4597 125.99771 1328.5 124 z "
     id="path4639" />
  <path
     style="fill:#1a3584;fill-opacity:1;fill-rule:evenodd;stroke:none"
     d="M 1263.4688 0 C 1262.6525 7.4987825 1262.1562 15.059165 1262.1562 22.71875 C 1262.1562 42.619864 1265.4609 63.467115 1271.75 84 L 1314.0938 84 C 1309.8046 66.687902 1307.6562 48.992845 1307.6562 31.5 C 1307.6562 21.048025 1308.6544 10.50472 1310.2812 0 L 1263.4688 0 z "
     id="path4585" />
  <path
     style="fill:#1a3584;fill-opacity:1;fill-rule:evenodd;stroke:none"
     d="M 1600 124 L 1438.6875 124 C 1439.9898 126.01048 1441.2395 128.05052 1442.625 130 L 1600 130 L 1600 124 z "
     id="path4663" />
  <path
     style="fill:#1a3584;fill-opacity:1;fill-rule:evenodd;stroke:none"
     d="M 1415.7812 0 C 1413.4215 11.12151 1412.125 22.62674 1412.125 34.4375 C 1412.125 51.735268 1414.8484 68.356649 1419.7812 84 L 1600 84 L 1600 0 L 1415.7812 0 z "
     id="path4553" />
  <path
     style="fill:#19266c;fill-opacity:1;fill-rule:evenodd;stroke:none"
     d="M 127.5 0 L 78.03125 0 C 55.625638 23.06219 38.956685 52.04832 30.125 84 L 74.0625 84 C 84.272273 52.330801 102.39249 22.718094 127.5 0 z "
     id="path4470" />
  <path
     style="fill:#19266c;fill-opacity:1;fill-rule:evenodd;stroke:none"
     d="M 176.40625 84 L 440.15625 84 C 416.07848 35.417985 366.19388 1.78125 308.46875 1.78125 C 250.12142 1.78125 200.35826 35.415133 176.40625 84 z "
     id="path397-2-4" />
  <path
     style="fill:#19266c;fill-opacity:1;fill-rule:evenodd;stroke:none"
     d="M 1336.4062 0 C 1334.8042 9.7532199 1333.9375 19.809597 1333.9375 30.1875 C 1333.9375 47.948972 1336.9771 66.188355 1342.7188 84 L 1384.0312 84 C 1380.0733 68.71277 1378.1562 53.181615 1378.1562 38 C 1378.1562 25.058626 1379.5119 12.351547 1382.0938 0 L 1336.4062 0 z "
     id="path4609" />
  <path
     style="fill:#19266c;fill-opacity:1;fill-rule:evenodd;stroke:none"
     d="M 1415.7812 -0.09375 C 1413.4092 11.055339 1412.125 22.595124 1412.125 34.4375 C 1412.125 51.725823 1414.8216 68.364593 1419.75 84 L 1600 84 L 1600 -0.09375 L 1415.7812 -0.09375 z "
     id="path4563" />
  <path
     style="fill:#19266c;fill-opacity:1;fill-rule:evenodd;stroke:none"
     d="M 1263.4688 0 C 1262.6525 7.4987825 1262.1562 15.059165 1262.1562 22.71875 C 1262.1562 42.619864 1265.4609 63.467115 1271.75 84 L 1314.0938 84 C 1309.8046 66.687902 1307.6562 48.992845 1307.6562 31.5 C 1307.6562 21.048025 1308.6544 10.50472 1310.2812 0 L 1263.4688 0 z "
     id="path4597" />
  <path
     style="fill:#0d165b;fill-opacity:1;fill-rule:evenodd;stroke:none"
     d="M 132.46875 124 L 91.03125 124 C 90.820229 125.9856 90.672973 127.98714 90.53125 130 L 131.5625 130 C 131.79174 127.97991 132.16792 126.00232 132.46875 124 z "
     id="path4365" />
  <path
     style="fill:#0d165b;fill-opacity:1;fill-rule:evenodd;stroke:none"
     d="M 65.40625 124 L 23.3125 124 C 23.193916 125.9967 23.087365 127.99147 23.03125 130 L 64.90625 130 C 65.051582 127.99704 65.196287 126.0043 65.40625 124 z "
     id="path4377" />
  <path
     style="fill:#0d165b;fill-opacity:1;fill-rule:evenodd;stroke:none"
     d="M 453.375 124 L 163.28125 124 C 162.93857 125.98532 162.63763 127.98884 162.375 130 L 454.28125 130 C 454.01666 127.98949 453.7201 125.9847 453.375 124 z "
     id="path4353" />
  <path
     style="fill:#0d165c;fill-opacity:1;fill-rule:evenodd;stroke:none"
     d="M 1399.7812 124 L 1360.9062 124 C 1362.1001 126.00054 1363.2308 128.03571 1364.5 130 L 1403.0312 130 C 1401.8702 128.03011 1400.8578 126.00113 1399.7812 124 z "
     id="path4687" />
  <path
     style="fill:#0d165c;fill-opacity:1;fill-rule:evenodd;stroke:none"
     d="M 1600 124 L 1438.6875 124 C 1439.968 125.9766 1441.2016 127.98858 1442.5625 129.90625 L 1600 129.90625 L 1600 124 z "
     id="path4699" />
  <path
     style="fill:#0d165c;fill-opacity:1;fill-rule:evenodd;stroke:none"
     d="M 1328.5 124 L 1288.3125 124 C 1289.3699 125.9959 1290.3485 128.03086 1291.4688 130 L 1331.375 130 C 1330.3464 128.02926 1329.4597 125.99771 1328.5 124 z "
     id="path4675" />
</svg>
