<?xml version="1.0" encoding="UTF-8" standalone="no"?>
<!-- Created with Inkscape (http://www.inkscape.org/) -->

<svg
   xmlns:dc="http://purl.org/dc/elements/1.1/"
   xmlns:cc="http://creativecommons.org/ns#"
   xmlns:rdf="http://www.w3.org/1999/02/22-rdf-syntax-ns#"
   xmlns:svg="http://www.w3.org/2000/svg"
   xmlns="http://www.w3.org/2000/svg"
   xmlns:sodipodi="http://sodipodi.sourceforge.net/DTD/sodipodi-0.dtd"
   xmlns:inkscape="http://www.inkscape.org/namespaces/inkscape"
   id="svg3905"
   version="1.1"
   inkscape:version="0.48.4 r9939"
   width="1574.6794"
   height="541.49689"
   sodipodi:docname="romol.svg">
  <metadata
     id="metadata3911">
    <rdf:RDF>
      <cc:Work
         rdf:about="">
        <dc:format>image/svg+xml</dc:format>
        <dc:type
           rdf:resource="http://purl.org/dc/dcmitype/StillImage" />
        <dc:title></dc:title>
      </cc:Work>
    </rdf:RDF>
  </metadata>
  <defs
     id="defs3909" />
  <sodipodi:namedview
     pagecolor="#ffffff"
     bordercolor="#666666"
     borderopacity="1"
     objecttolerance="10"
     gridtolerance="10"
     guidetolerance="10"
     inkscape:pageopacity="0"
     inkscape:pageshadow="2"
     inkscape:window-width="1680"
     inkscape:window-height="1003"
     id="namedview3907"
     showgrid="false"
     inkscape:zoom="0.48083261"
     inkscape:cx="884.30469"
     inkscape:cy="-172.47343"
     inkscape:window-x="-2"
     inkscape:window-y="-3"
     inkscape:window-maximized="1"
     inkscape:current-layer="svg3905"
     fit-margin-top="0"
     fit-margin-left="0"
     fit-margin-right="0"
     fit-margin-bottom="0" />
  <g
     transform="matrix(0.96627318,0,0,1.0329133,-0.38716898,1.8718898)"
     style="font-size:336.89437866px;font-style:normal;font-weight:normal;text-align:center;line-height:127.99999714%;letter-spacing:0px;word-spacing:0px;text-anchor:middle;fill:#0f75bd;fill-opacity:1;stroke:none;font-family:Helvetica;-inkscape-font-specification:Helvetica"
     id="text3915">
    <path
       d="m 36.171013,286.61693 76.415497,0 c 24.15742,0 34.14942,7.60292 36.81277,36.49966 l -0.3369,21.89813 c 0,15.16023 6.30972,37.28022 10.68934,47.38704 l 38.06907,0 0,-11.12993 c -11.79129,-8.08545 -10.72526,-13.46339 -11.39904,-46.14211 -0.3369,-40.42729 -5.216,-49.17417 -23.46008,-63.654 28.57651,-18.10288 32.46495,-35.09619 32.46495,-59.50945 0,-42.44865 -33.65358,-65.16051 -81.82943,-65.16051 l -113.19650727,0 0,245.596 35.77033027,0 0.04986,-105.78483 m 0,-31.02917 0,-78.41897 71.177707,0 c 12.00318,0 31.12285,3.10353 38.87141,9.84138 8.96044,6.06805 13.34008,15.54965 13.34008,28.35953 0,28.97289 -26.79565,40.21806 -52.07697,40.21806 l -71.312227,0"
       style="fill:#0f75bd;fill-opacity:1;font-family:Helvetica;-inkscape-font-specification:Helvetica"
       id="path3957"
       inkscape:connector-curvature="0"
       sodipodi:nodetypes="cscccccccssccccccscssc" />
  </g>
  <g
     transform="matrix(1.002044,0,0,0.99796017,-0.38791515,1.8718898)"
     style="font-size:349.28607178px;font-style:normal;font-weight:normal;text-align:center;line-height:127.99999714%;letter-spacing:0px;word-spacing:0px;text-anchor:middle;fill:#0f75bd;fill-opacity:1;stroke:none;font-family:Helvetica;-inkscape-font-specification:Helvetica"
     id="text3919">
    <path
       d="m 1210.5257,118.69403 -34.0157,0 -0.9129,254.62955 163.6654,0 0,-31.62658 -128.7368,0 0,-223.00297"
       style="fill:#0f75bd;fill-opacity:1;font-family:Helvetica;-inkscape-font-specification:Helvetica"
       id="path3960"
       inkscape:connector-curvature="0"
       sodipodi:nodetypes="ccccccc" />
  </g>
  <text
     xml:space="preserve"
     style="font-size:40px;font-style:normal;font-weight:normal;text-align:center;line-height:127.99999714%;letter-spacing:0px;word-spacing:0px;text-anchor:middle;fill:#000000;fill-opacity:1;stroke:none;font-family:Sans"
     x="232.35449"
     y="233.53256"
     id="text3923"
     sodipodi:linespacing="128%"><tspan
       sodipodi:role="line"
       id="tspan3925"
       x="232.35449"
       y="233.53256"></tspan></text>
  <text
     xml:space="preserve"
     style="font-size:354.23394775px;font-style:normal;font-weight:normal;text-align:center;line-height:127.99999714%;letter-spacing:0px;word-spacing:0px;text-anchor:middle;fill:#0f75bd;fill-opacity:1;stroke:none;font-family:Helvetica;-inkscape-font-specification:Helvetica"
     x="297.75983"
     y="413.81674"
     id="text3927"
     sodipodi:linespacing="128%"
     transform="scale(1.0274602,0.9732737)"><tspan
       sodipodi:role="line"
       id="tspan3929"
       x="297.75983"
       y="413.81674">o</tspan></text>
  <text
     xml:space="preserve"
     style="font-size:354.23394775px;font-style:normal;font-weight:normal;text-align:center;line-height:127.99999714%;letter-spacing:0px;word-spacing:0px;text-anchor:middle;fill:#0f75bd;fill-opacity:1;stroke:none;font-family:Helvetica;-inkscape-font-specification:Helvetica"
     x="1029.1696"
     y="380.05258"
     id="text3927-4"
     sodipodi:linespacing="128%"
     transform="scale(1.0274602,0.9732737)"><tspan
       sodipodi:role="line"
       id="tspan3929-0"
       x="1029.1696"
       y="380.05258">o</tspan></text>
  <g
     transform="matrix(1.0436093,0,0,0.95821302,-0.38791515,1.8718898)"
     style="font-size:372.35345459px;font-style:normal;font-weight:normal;text-align:center;line-height:127.99999714%;letter-spacing:0px;word-spacing:0px;text-anchor:middle;fill:#24a9e1;fill-opacity:1;stroke:#24a9e1;stroke-opacity:1;font-family:Helvetica;-inkscape-font-specification:Helvetica"
     id="text3952">
    <path
       d="m 1138.0232,478.02038 25.9185,0 c 7.2769,0 13.0218,-2.17029 18.0007,-6.63853 5.6172,-5.10655 8.0428,-11.10677 8.0428,-19.66026 0,-17.48995 -10.3408,-27.3201 -28.7244,-27.3201 l -31.8721,0 0,94.21812 8.6345,0 0,-40.59923 m 0,-8.26229 0,-36.90247 25.6777,0 c 11.3621,0 18.1283,8.14221 18.1283,18.35532 0,10.21311 -6.7662,18.54715 -18.1283,18.54715 l -25.6777,0"
       style="font-size:127.66402435px;fill:#24a9e1;fill-opacity:1;stroke:#24a9e1;stroke-opacity:1"
       id="path4473"
       inkscape:connector-curvature="0"
       sodipodi:nodetypes="cscssccccccsssc" />
    <path
       d="m 1205.5319,450.57262 0,67.98116 7.7346,0 0,-35.80983 c 0,-9.57479 3.1036,-17.3225 8.2102,-21.02475 3.3192,-2.42562 5.6389,-3.73421 13.0434,-3.86188 l 0,-8.00276 c -1.7873,-0.25533 -2.6809,-0.38299 -4.0852,-0.38299 -6.8939,0 -12.121,2.32179 -16.8166,13.22913 l 0,-12.12808 -8.0864,0"
       style="font-size:127.66402435px;fill:#24a9e1;fill-opacity:1;stroke:#24a9e1;stroke-opacity:1"
       id="path4475"
       inkscape:connector-curvature="0"
       sodipodi:nodetypes="cccscccsccc" />
    <path
       d="m 1270.9236,449.04134 c -17.0933,0 -28.8076,13.02106 -28.8076,35.48991 0,22.46884 11.3224,36.25727 28.9353,36.35319 18.7663,0.1022 29.1994,-13.88435 29.1994,-35.84254 0,-23.10716 -11.1948,-36.09648 -29.3271,-36.00056 m 0.1277,7.43213 c 12.0004,0 21.2633,11.84446 21.2633,28.44077 0,15.70266 -9.5183,28.53807 -21.2633,28.53807 -11.8728,0 -20.823,-12.70775 -20.823,-28.92106 0,-16.08565 8.9502,-28.05778 20.823,-28.05778"
       style="font-size:127.66402435px;fill:#24a9e1;fill-opacity:1;stroke:#24a9e1;stroke-opacity:1"
       id="path4477"
       inkscape:connector-curvature="0"
       sodipodi:nodetypes="csssccsssc" />
    <path
       d="m 1318.1148,450.57262 0,76.59841 c 0,6.63853 -0.2709,11.3507 -6.7817,11.3507 -0.383,0 -0.9119,-0.0138 -3.3629,-0.0138 l 0,7.22176 c 1.3472,0 4.6863,-0.0235 6.3459,-0.0235 12.0004,0 11.5765,-11.6338 11.5765,-14.32232 l 0,-80.81133 -7.7778,0 m 7.7778,-26.17113 -7.7778,0 0,12.01389 7.7778,0 0,-12.01389"
       style="font-size:127.66402435px;fill:#24a9e1;fill-opacity:1;stroke:#24a9e1;stroke-opacity:1"
       id="path4479"
       inkscape:connector-curvature="0"
       sodipodi:nodetypes="cssccssccccccc" />
    <path
       d="m 1467.9245,472.70236 c -0.5107,-6.51086 -2.7246,-10.45249 -5.2779,-14.15474 -4.5959,-6.25553 -10.9573,-9.61866 -20.2768,-9.61866 -18.0006,0 -29.7457,14.02709 -29.7457,36.24061 0,21.5752 11.3097,35.47848 28.5612,35.47848 16.4876,0 24.9011,-10.57176 26.8824,-24.8025 l -7.3779,0 c -1.1708,10.62785 -9.1282,17.71349 -18.1923,17.71349 -14.2992,0 -21.569,-12.55915 -21.569,-28.38947 0,-20.65669 10.0486,-28.55762 21.3137,-28.55762 8.9364,0 16.9398,7.34646 17.4237,16.09041 l 8.2586,0"
       style="font-size:127.66402435px;fill:#24a9e1;fill-opacity:1;stroke:#24a9e1;stroke-opacity:1"
       id="path4483"
       inkscape:connector-curvature="0"
       sodipodi:nodetypes="ccsssccssscc" />
    <path
       d="m 1507.2564,450.91175 -11.4151,0 0,-18.72275 -7.6621,0 0,18.72275 -8.6905,0 0,7.12116 8.6905,0 0,50.8433 c 0,6.76618 3.1636,11.88904 11.8976,11.88904 2.5533,0 5.1066,-0.39099 8.6812,-1.02931 l 0,-7.05099 c -1.4043,0.38299 -3.0199,0.9423 -5.0626,0.9423 -4.5959,0 -7.8541,-1.22869 -7.8541,-6.43185 l 0,-49.16249 11.4151,0 0,-7.12116"
       style="font-size:127.66402435px;fill:#24a9e1;fill-opacity:1;stroke:#24a9e1;stroke-opacity:1"
       id="path4485"
       inkscape:connector-curvature="0"
       sodipodi:nodetypes="ccccccccssccssccc" />
    <path
       d="m 1399.0004,487.5683 c 0,-10.21312 -0.766,-16.1012 -2.681,-21.0801 -4.2524,-10.01989 -12.0595,-17.47084 -24.5698,-17.61763 -16.3492,-0.19184 -29.2152,15.35351 -29.1271,36.25658 0.092,21.95796 9.8561,35.82973 28.6226,35.82973 15.3197,0 24.7637,-8.37596 27.4447,-22.92964 l -8.513,0.0678 c -2.5315,11.21662 -9.8395,15.57514 -18.5487,15.60905 -6.7661,0.0263 -12.7384,-3.61436 -16.313,-9.23157 -2.5533,-3.82992 -4.1849,-10.26573 -4.3125,-16.90425 l 47.9978,0 m -47.9604,-7.2205 c 1.3341,-17.27532 11.3709,-22.8687 20.3328,-23.00361 13.8146,-0.20795 19.8814,11.25853 19.8814,22.23763 0,0.25533 0,0.51065 -0.1277,0.76598 l -40.0865,0"
       style="font-size:127.66402435px;font-style:normal;font-weight:normal;text-align:center;line-height:127.99999714%;letter-spacing:0px;word-spacing:0px;text-anchor:middle;fill:#24a9e1;fill-opacity:1;stroke:#24a9e1;stroke-opacity:1;font-family:Helvetica;-inkscape-font-specification:Helvetica"
       id="path4481"
       inkscape:connector-curvature="0"
       sodipodi:nodetypes="ccsssccsccccsscc" />
  </g>
  <path
     style="fill:none;stroke:#24a9e1;stroke-width:45;stroke-linecap:butt;stroke-linejoin:round;stroke-miterlimit:4;stroke-opacity:1;stroke-dasharray:none"
     d="m 443.37358,416.08834 c 0,0 -27.83537,-335.193832 45.32324,-360.401706 29.12756,-0.715125 76.13741,51.373666 124.41366,110.566976 21.61959,-54.75021 49.3019,-129.327532 84.24962,-143.753383 76.46067,4.128575 326.257,509.012893 326.257,509.012893"
     id="path3962"
     inkscape:connector-curvature="0"
     sodipodi:nodetypes="ccccc" />
</svg>
