<svg xmlns="http://www.w3.org/2000/svg" viewBox="0 0 119.9 50" enable-background="new 0 0 119.9 50"><path fill="#CA9C52" d="M12.6 0c-7 0-12.6 5.6-12.6 12.6 0 6.9 5.6 12.6 12.6 12.6 6.9 0 12.6-5.6 12.6-12.6-.1-7-5.7-12.6-12.6-12.6zm0 15.4c-1.6 0-2.9-1.3-2.9-2.9 0-1.6 1.3-2.9 2.9-2.9s2.9 1.3 2.9 2.9c-.1 1.6-1.4 2.9-2.9 2.9zM12.5 25.1v24.9c3.1 0 4.9-2.7 4.9-4.7s-1.4-4.8-4.8-4.9c-4.4-.1-7.8-3.5-7.8-7.8 0-4.2 3.7-7.5 7.7-7.5z"/><path d="M38.4 7.7v3.5h2c.5 0 .8-.1 1-.2.2-.2.4-.6.4-1.1h.2v3.1h-.2c-.1-.4-.1-.7-.2-.8-.1-.2-.2-.3-.4-.4-.2-.1-.5-.1-.8-.1h-2v2.9c0 .4 0 .6.1.7 0 .1.1.2.2.2.1.1.3.1.5.1h1.5c.5 0 .9 0 1.1-.1.2-.1.4-.2.7-.4.3-.3.5-.7.8-1.2h.3l-.8 2.2h-6.9v-.2h.3c.2 0 .4-.1.6-.2l.3-.3c.1-.1.1-.4.1-.9v-5.7c0-.6-.1-.9-.2-1-.2-.2-.4-.3-.8-.3h-.3v-.3h6.9l.1 2h-.3c-.1-.5-.2-.8-.3-1-.1-.2-.3-.3-.5-.4-.2-.1-.5-.1-.9-.1h-2.5zM49.3 11.2l1.9 2.9c.5.8.9 1.3 1.2 1.5.3.2.6.3 1 .3v.2h-3.8v-.2c.3 0 .4 0 .6-.1.1 0 .2-.1.2-.2.1-.1.1-.2.1-.2 0-.1 0-.2-.1-.3 0-.1-.2-.3-.4-.6l-1.5-2.3-1.9 2.4c-.2.3-.3.4-.4.5l-.1.3c0 .1.1.3.2.3.1.1.3.1.7.2v.2h-3.2v-.2l.6-.1c.3-.1.5-.3.8-.5.2-.2.5-.5.8-.9l2.1-2.7-1.8-2.6c-.3-.6-.8-1.1-1.1-1.3-.3-.2-.7-.3-1.2-.3v-.3h4.1v.2c-.4 0-.6.1-.7.2-.1.1-.2.2-.2.3 0 .2.1.4.3.7l1.4 2 1.6-2c.2-.2.3-.4.3-.5l.1-.3c0-.1 0-.2-.1-.2-.1-.1-.1-.2-.2-.2s-.3-.1-.6-.1v-.1h3.2v.2c-.2 0-.5.1-.6.1-.2.1-.5.2-.7.4-.2.2-.5.5-.8.9l-1.8 2.4zM61.6 7l.2 3h-.2c-.3-.9-.7-1.6-1.2-2-.5-.4-1.1-.6-1.8-.6-.6.1-1.1.3-1.6.6s-.9.8-1.1 1.4c-.3.7-.4 1.5-.4 2.5 0 .8.1 1.5.4 2.1.3.6.6 1 1.2 1.4.5.3 1.1.5 1.8.5.6 0 1.1-.1 1.5-.4.4-.2.9-.7 1.5-1.5l.2.1c-.4.8-1 1.4-1.6 1.7-.6.4-1.3.6-2.1.6-1.5 0-2.6-.5-3.4-1.6-.6-.8-.9-1.8-.9-2.9 0-.9.2-1.7.6-2.5.4-.7.9-1.3 1.6-1.7.6-.5 1.4-.7 2.2-.7.6 0 1.3.2 1.9.5.2.1.3.1.4.1.1 0 .2 0 .3-.1.1-.1.2-.3.2-.5h.3zM65.3 7.7v3.5h2c.5 0 .8-.1 1-.2.2-.2.4-.6.4-1.1h.2v3.1h-.2c-.1-.4-.1-.7-.2-.8-.1-.2-.2-.3-.4-.4-.2-.1-.5-.1-.8-.1h-2v2.9c0 .4 0 .6.1.7 0 .1.1.2.2.2.1.1.3.1.5.1h1.5c.5 0 .9 0 1.1-.1.2-.1.4-.2.7-.4.3-.3.5-.7.8-1.2h.3l-.8 2.2h-6.9v-.2h.3c.2 0 .4-.1.6-.2l.3-.3v-6.6c0-.6-.1-.9-.2-1-.2-.2-.4-.3-.8-.3h-.3v-.3h6.9l.1 2h-.3c-.1-.5-.2-.8-.3-1-.1-.2-.3-.3-.5-.4-.2-.1-.5-.1-.9-.1h-2.4zM78.4 13.7h.2l-.8 2.4h-6.8v-.2h.3c.4 0 .6-.1.8-.4.1-.1.1-.5.1-1v-5.7c0-.6-.1-.9-.2-1-.2-.2-.4-.3-.8-.3h-.2v-.3h4v.2c-.5 0-.8 0-1 .1-.2.1-.3.2-.4.3-.1.1-.1.5-.1 1v5.6c0 .4 0 .6.1.7.1.1.1.2.2.2s.5.1 1 .1h.7c.7 0 1.2-.1 1.4-.2.3-.1.5-.3.8-.5.3-.1.5-.5.7-1zM81.8 7.7v3.5h2c.5 0 .8-.1 1-.2.2-.2.4-.6.4-1.1h.2v3.1h-.2c-.1-.4-.1-.7-.2-.8-.1-.2-.2-.3-.4-.4-.2-.1-.5-.1-.8-.1h-2v2.9c0 .4 0 .6.1.7 0 .1.1.2.2.2.1.1.3.1.5.1h1.4c.5 0 .9 0 1.1-.1.2-.1.4-.2.7-.4.3-.3.5-.7.8-1.2h.3l-.8 2.2h-6.9v-.2h.3c.2 0 .4-.1.6-.2l.3-.3c.1-.1.1-.4.1-.9v-5.7c0-.6-.1-.9-.2-1-.2-.2-.4-.3-.8-.3h-.3v-.3h6.9l.1 2h-.3c-.1-.5-.2-.8-.3-1-.1-.2-.3-.3-.5-.4-.2-.1-.5-.1-.9-.1h-2.4zM87 7.2h2.4l5.4 6.7v-5.1c0-.5-.1-.9-.2-1-.2-.2-.4-.3-.8-.3h-.3v-.3h3.1v.2h-.3c-.4 0-.6.1-.8.3-.1.1-.1.5-.1 1v7.5h-.2l-5.9-7.2v5.5c0 .5.1.9.2 1 .2.2.4.3.8.3h.3v.2h-3.1v-.2h.3c.4 0 .7-.1.8-.3.1-.1.1-.5.1-1v-6.1l-.6-.6c-.1-.1-.3-.2-.6-.3-.1 0-.3-.1-.6-.1v-.2zM105 7l.2 3h-.2c-.3-.9-.7-1.6-1.2-2-.5-.4-1.1-.6-1.8-.6-.6 0-1.1.1-1.6.5-.5.3-.9.8-1.1 1.4-.3.7-.4 1.5-.4 2.5 0 .8.1 1.5.4 2.1.3.6.6 1 1.2 1.4.5.3 1.1.5 1.8.5.6 0 1.1-.1 1.5-.4.4-.2.9-.7 1.5-1.5l.2.1c-.4.8-1 1.4-1.6 1.7-.6.4-1.3.6-2.1.6-1.5 0-2.6-.5-3.4-1.6-.6-.8-.9-1.8-.9-2.9 0-.9.2-1.7.6-2.5.4-.7.9-1.3 1.6-1.7.7-.4 1.5-.6 2.3-.6.6 0 1.3.2 1.9.5.2.1.3.1.4.1.1 0 .2 0 .3-.1.1-.1.2-.3.2-.5h.2zM110 15.9v.2h-3.8v-.2h.3c.4 0 .6-.1.8-.3.1-.1.2-.5.2-1v-5.8c0-.5 0-.7-.1-.9 0-.1-.1-.2-.3-.3-.2-.1-.4-.2-.6-.2h-.3v-.2h3.8v.2h-.3c-.4 0-.6.1-.8.3-.1.1-.2.5-.2 1v5.8c0 .5 0 .7.1.9 0 .1.1.2.3.3.2.1.4.2.6.2h.3zM116.5 13.2h-3.5l-.6 1.4c-.1.3-.2.6-.2.8 0 .1.1.3.2.4.1.1.4.2.8.2v.2h-2.8v-.2c.4-.1.6-.2.7-.3.2-.2.5-.6.7-1.3l3.1-7.3h.2l3.1 7.4c.2.6.5 1 .7 1.2.2.2.5.3.9.3v.2h-3.5v-.2c.4 0 .6-.1.7-.2.1-.1.2-.2.2-.4s-.1-.5-.3-.9l-.4-1.3zm-.2-.5l-1.5-3.6-1.6 3.6h3.1zM41.7 20.8v3.1h-.2c-.1-.6-.2-1.1-.4-1.4-.2-.4-.5-.6-.9-.8-.4-.2-.8-.3-1.2-.3-.5 0-.8.1-1.1.4-.3.3-.4.6-.4.9 0 .3.1.5.3.7.3.3.9.8 1.9 1.3.8.4 1.4.8 1.7 1 .3.2.5.5.7.8.2.3.2.7.2 1 0 .7-.3 1.3-.8 1.7-.5.5-1.2.7-2 .7-.3 0-.5 0-.7-.1-.1 0-.4-.1-.8-.2s-.7-.2-.8-.2c-.1 0-.2 0-.3.1-.1.1-.1.2-.1.4h-.2v-3.1h.2c.1.6.3 1.1.5 1.4.2.3.5.6.9.8.4.2.8.3 1.3.3s1-.1 1.3-.4c.3-.3.5-.6.5-1 0-.2-.1-.4-.2-.7-.1-.2-.3-.4-.6-.6-.2-.1-.6-.4-1.4-.8-.8-.4-1.3-.8-1.6-1-.3-.3-.6-.5-.7-.8-.2-.3-.2-.6-.2-1 0-.6.2-1.2.7-1.7.5-.5 1.1-.7 1.9-.7.5 0 1 .1 1.5.3.2.1.4.2.5.2.1 0 .2 0 .3-.1.1-.1.1-.2.2-.4zM45.9 21.5v3.5h2c.5 0 .8-.1 1-.2.2-.2.4-.6.4-1.1h.2v3.1h-.2c-.1-.4-.1-.7-.2-.8-.1-.2-.2-.3-.4-.4-.2-.1-.5-.1-.8-.1h-2v2.9c0 .4 0 .6.1.7 0 .1.1.2.2.2.1.1.3.1.5.1h1.5c.5 0 .9 0 1.1-.1.2-.1.4-.2.7-.4.3-.3.5-.7.8-1.2h.2l-.8 2.2h-6.9v-.2h.3c.2 0 .4-.1.6-.2l.3-.3c.1-.1.1-.4.1-.9v-5.8c0-.6-.1-.9-.2-1-.2-.2-.4-.3-.8-.3h-.3v-.2h6.9l.1 2h-.3c-.1-.5-.2-.8-.3-1-.1-.2-.3-.3-.5-.4-.2-.1-.5-.1-.9-.1h-2.4zM60.8 21v.2c-.3.1-.6.2-.7.3-.2.2-.4.5-.6 1l-3.1 7.6h-.2l-3.3-7.7c-.2-.4-.3-.6-.4-.7-.1-.1-.2-.2-.4-.3-.2-.1-.4-.1-.6-.1v-.3h3.5v.2c-.4 0-.7.1-.8.2-.1.1-.2.2-.2.4s.1.6.3 1l2.3 5.2 2.1-5.2c.2-.5.3-.9.3-1.1 0-.1-.1-.2-.2-.4-.1-.1-.3-.2-.6-.2h-.1v-.1h2.7zM63.8 21.5v3.5h2c.5 0 .8-.1 1-.2.2-.2.4-.6.4-1.1h.2v3.1h-.2c-.1-.4-.2-.7-.2-.8-.1-.2-.2-.3-.4-.4-.2-.1-.5-.1-.8-.1h-2v2.9c0 .4 0 .6.1.7 0 .1.1.2.2.2.1.1.3.1.5.1h1.5c.5 0 .9 0 1.1-.1.2-.1.4-.2.7-.4.3-.3.5-.7.8-1.2h.3l-.8 2.2h-6.9v-.2h.3c.2 0 .4-.1.6-.2l.3-.3c.1-.1.1-.4.1-.9v-5.8c0-.6-.1-.9-.2-1-.2-.2-.4-.3-.8-.3h-.3v-.2h6.9l.1 2h-.3c-.1-.5-.2-.8-.3-1-.1-.2-.3-.3-.5-.4-.2-.1-.5-.1-.9-.1h-2.5zM78.3 29.9h-2.4l-3-4.2h-.8999999999999999v2.6c0 .6.1.9.2 1 .2.2.4.3.7.3h.3v.2h-3.8v-.2h.3c.4 0 .6-.1.8-.4.1-.1.1-.5.1-1v-5.8c0-.6-.1-.9-.2-1-.2-.2-.4-.3-.8-.3h-.3v-.1h3.2c.9 0 1.6.1 2.1.2.4.1.8.4 1.1.8.3.4.5.8.5 1.3s-.2 1-.5 1.4c-.4.4-.9.7-1.7.9l1.8 2.6c.4.6.8 1 1.1 1.2.3.2.7.3 1.2.4v.1zm-6.3-4.6h.4c.9 0 1.5-.2 1.9-.6.4-.4.6-.8.6-1.4 0-.6-.2-1-.5-1.4-.3-.3-.8-.5-1.4-.5-.3 0-.6 0-1 .1v3.8zM83.1 20.8c1.2 0 2.2.4 3 1.3.8.9 1.3 2 1.3 3.3 0 1.4-.4 2.5-1.3 3.4-.9.9-1.9 1.3-3.1 1.3-1.2 0-2.3-.4-3.1-1.3-.8-.9-1.3-2-1.3-3.4s.5-2.6 1.4-3.5c1-.7 2-1.1 3.1-1.1zm-.1.5c-.8 0-1.4.3-1.9.9-.6.7-.9 1.8-.9 3.2 0 1.5.3 2.6.9 3.4.5.6 1.1.9 1.9.9.8 0 1.5-.3 2.1-1 .5-.7.8-1.7.8-3.1 0-1.5-.3-2.7-.9-3.4-.5-.6-1.1-.9-2-.9zM40.5 34.5c1.2 0 2.2.4 3 1.3.8.9 1.3 2 1.3 3.3 0 1.4-.4 2.5-1.3 3.4-.9.9-1.9 1.3-3.1 1.3-1.2 0-2.3-.4-3.1-1.3-.8-.9-1.3-2-1.3-3.4s.5-2.6 1.4-3.5c.9-.7 1.9-1.1 3.1-1.1zm-.1.5c-.8 0-1.4.3-1.9.9-.6.7-.9 1.8-.9 3.2 0 1.5.3 2.6.9 3.4.5.6 1.1.9 1.9.9.8 0 1.5-.3 2.1-1 .5-.7.8-1.7.8-3.1 0-1.5-.3-2.7-.9-3.4-.5-.6-1.2-.9-2-.9zM54.5 34.5l.2 3h-.2c-.3-.9-.7-1.6-1.2-2-.5-.4-1.1-.6-1.8-.6-.6 0-1.1.2-1.6.5s-.9.8-1.1 1.4c-.3.7-.4 1.5-.4 2.5 0 .8.1 1.5.4 2.1.3.6.6 1 1.2 1.4.5.3 1.1.5 1.8.5.6 0 1.1-.1 1.5-.4.4-.2.9-.7 1.5-1.5l.2.1c-.4.8-1 1.4-1.6 1.7-.6.4-1.3.6-2.1.6-1.5 0-2.6-.5-3.4-1.6-.6-.8-.9-1.8-.9-2.9 0-.9.2-1.7.6-2.5.4-.7.9-1.3 1.6-1.7.7-.4 1.5-.6 2.3-.6.6 0 1.3.2 1.9.5.2.1.3.1.4.1.1 0 .2 0 .3-.1.1-.1.2-.3.2-.5h.2zM59.2 38.9h4.1v-2.6c0-.5 0-.8-.1-.9 0-.1-.1-.2-.3-.3-.1-.1-.3-.1-.5-.1h-.3v-.2h3.8v.2h-.3c-.2 0-.4.1-.6.2l-.3.3c-.1.1-.1.4-.1.9v5.8c0 .5 0 .7.1.9 0 .1.1.2.3.3.2.1.4.2.6.2h.3v.2h-3.8v-.2h.3c.4 0 .6-.1.8-.3.1-.1.2-.5.2-1v-2.7h-4.1v2.7c0 .5 0 .7.1.9 0 .1.1.2.3.3.2.1.4.2.6.2h.3v.2h-3.8v-.2h.2c.4 0 .6-.1.8-.3.1-.1.2-.5.2-1v-5.8c0-.5 0-.8-.1-.9 0-.1-.1-.2-.3-.3-.2-.4-.4-.4-.6-.4h-.3v-.2h3.8v.2h-.3c-.2 0-.4.1-.6.2l-.3.3c-.1.1-.1.4-.1.9v2.5zM72.2 34.5c1.2 0 2.2.4 3 1.3.8.9 1.3 2 1.3 3.3 0 1.4-.4 2.5-1.3 3.4-.9.9-1.9 1.3-3.1 1.3-1.2 0-2.3-.4-3.1-1.3-.8-.9-1.3-2-1.3-3.4s.5-2.6 1.4-3.5c.9-.7 1.9-1.1 3.1-1.1zm-.1.5c-.8 0-1.4.3-1.9.9-.6.7-.9 1.8-.9 3.2 0 1.5.3 2.6.9 3.4.5.6 1.1.9 1.9.9.8 0 1.5-.3 2.1-1 .5-.7.8-1.7.8-3.1 0-1.5-.3-2.7-.9-3.4-.5-.6-1.2-.9-2-.9zM84.2 40.7h-3.5l-.6 1.4c-.1.3-.1.6-.1.8 0 .1.1.3.2.4.1.1.4.2.8.2v.2h-2.8v-.2c.4-.1.6-.2.7-.3.2-.2.5-.6.7-1.3l3.1-7.3h.3l3.1 7.4c.2.6.5 1 .7 1.2.2.2.5.3.9.3v.2h-3.5v-.2c.4 0 .6-.1.7-.2.1-.2.1-.3.1-.4 0-.2-.1-.5-.3-.9l-.5-1.3zm-.2-.5l-1.5-3.6-1.5 3.6h3z"/></svg>